<?xml version="1.0" standalone="no"?>
<!DOCTYPE svg PUBLIC "-//W3C//DTD SVG 20010904//EN"
 "http://www.w3.org/TR/2001/REC-SVG-20010904/DTD/svg10.dtd">
<svg version="1.0" xmlns="http://www.w3.org/2000/svg"
 width="512.000000pt" height="512.000000pt" viewBox="0 0 512.000000 512.000000"
 preserveAspectRatio="xMidYMid meet">

<g transform="translate(0.000000,512.000000) scale(0.100000,-0.100000)"
fill="#000000" stroke="none">
<path d="M1705 5095 c-14 -13 -25 -33 -25 -43 0 -10 16 -142 35 -293 19 -151
31 -277 27 -280 -4 -4 -101 -62 -217 -129 -115 -67 -218 -131 -227 -142 -20
-23 -23 -60 -8 -89 7 -11 120 -74 270 -149 158 -79 265 -138 272 -151 16 -26
376 -299 395 -299 10 0 13 -20 13 -80 l0 -80 -335 0 -336 0 -24 -25 c-14 -13
-25 -31 -25 -40 0 -13 -18 -15 -120 -15 l-119 0 -16 33 c-11 21 -66 69 -169
146 -154 114 -154 114 -145 145 17 57 11 105 -16 131 -24 25 -26 25 -215 25
-189 0 -191 0 -215 -25 -33 -32 -33 -78 0 -110 23 -24 30 -25 150 -25 149 0
152 -4 73 -83 -81 -80 -168 -98 -264 -53 -113 53 -167 170 -132 290 16 55 99
138 154 154 82 24 187 7 254 -43 18 -14 42 -25 51 -25 54 0 98 54 85 105 -8
30 -72 74 -156 107 -43 17 -77 22 -155 22 -92 1 -105 -1 -167 -31 -93 -44
-151 -100 -196 -191 -35 -72 -37 -81 -37 -172 0 -91 2 -100 38 -172 41 -83 98
-143 177 -183 35 -18 87 -74 245 -264 169 -204 206 -243 240 -256 22 -8 189
-47 370 -86 182 -40 333 -75 337 -78 3 -3 29 -258 57 -566 l51 -560 0 -526 0
-527 -30 -12 c-42 -17 -104 -90 -118 -138 -7 -22 -12 -90 -12 -151 0 -105 1
-113 25 -136 l24 -25 431 0 431 0 24 25 c24 23 25 31 25 136 0 61 -6 130 -12
153 -12 39 -79 118 -121 141 -16 9 -14 36 47 465 36 250 68 470 71 488 l6 32
89 0 89 0 6 -32 c3 -18 35 -238 71 -488 61 -429 63 -456 47 -465 -42 -23 -109
-102 -121 -141 -6 -23 -12 -92 -12 -153 0 -105 1 -113 25 -136 l24 -25 431 0
431 0 24 25 c24 23 25 31 25 136 0 61 -5 129 -12 151 -14 48 -76 121 -118 138
l-30 12 0 527 0 526 51 560 c28 308 54 563 57 566 4 3 164 40 356 83 191 42
358 82 371 89 12 6 113 120 224 253 161 194 209 245 243 260 65 29 144 113
181 191 29 62 32 77 32 164 0 90 -2 99 -37 171 -45 91 -103 147 -196 191 -62
30 -75 32 -167 31 -78 0 -112 -5 -155 -22 -84 -33 -148 -77 -156 -107 -13 -51
31 -105 85 -105 9 0 33 11 51 25 67 50 172 67 254 43 55 -16 138 -99 154 -154
28 -94 8 -169 -63 -239 -104 -104 -251 -98 -348 15 -58 68 -55 70 88 70 120 0
127 1 150 25 16 15 25 36 25 55 0 19 -9 40 -25 55 -24 25 -26 25 -215 25 -189
0 -191 0 -215 -25 -27 -26 -33 -74 -16 -131 9 -31 9 -31 -145 -145 -103 -77
-158 -125 -169 -146 l-16 -33 -119 0 c-120 0 -120 0 -126 25 -13 54 -21 55
-381 55 l-333 0 0 80 c0 60 3 80 13 80 19 0 357 254 388 292 18 22 104 70 285
162 377 191 379 178 -56 425 -58 33 -113 66 -122 73 -17 12 -16 29 18 300 49
387 57 376 -219 308 -185 -46 -214 -58 -223 -94 l-5 -23 -82 24 c-45 13 -135
31 -199 40 -110 15 -126 15 -235 0 -65 -9 -155 -27 -200 -41 -61 -17 -83 -20
-83 -11 0 39 -36 56 -210 100 -96 25 -185 45 -198 45 -13 0 -34 -11 -47 -25z
m230 -181 l65 -16 0 -100 c0 -55 5 -108 10 -119 6 -11 78 -53 160 -94 l150
-75 0 -50 c0 -49 -1 -49 -27 -44 -16 2 -106 16 -202 29 -96 14 -176 27 -177
28 -9 8 -59 457 -52 457 5 0 38 -7 73 -16z m1325 -9 c0 -26 -50 -428 -54 -432
-1 -2 -81 -14 -177 -28 -96 -13 -186 -27 -201 -29 -27 -5 -28 -5 -28 44 l0 50
150 75 c82 41 154 83 160 94 5 11 10 64 10 119 l0 100 58 15 c79 21 82 20 82
-8z m-526 -45 c79 -20 153 -49 195 -77 25 -16 24 -16 -100 -79 l-124 -63 -145
0 -145 0 -124 63 -125 63 45 26 c142 83 355 110 523 67z m-94 -435 c0 -54 -1
-55 -40 -75 l-40 -20 -40 20 c-39 20 -40 21 -40 75 l0 55 80 0 80 0 0 -55z
m-845 -269 c9 -65 14 -120 12 -123 -3 -2 -67 27 -143 65 l-137 69 119 71 c103
62 120 70 126 54 4 -9 14 -70 23 -136z m1684 79 l114 -68 -137 -69 c-76 -38
-140 -67 -143 -65 -4 5 21 202 33 255 2 13 8 21 12 19 4 -2 58 -35 121 -72z
m-1060 -14 c45 -24 45 -18 16 -101 l-12 -35 -74 -3 -74 -3 -103 104 -103 104
153 -22 c102 -15 168 -30 197 -44z m531 -36 l-105 -106 -74 3 -74 3 -12 35
c-29 83 -29 77 17 101 27 14 95 30 193 44 82 13 152 23 155 24 2 0 -43 -46
-100 -104z m-592 -265 l151 0 20 26 c12 15 21 33 21 40 0 8 5 14 10 14 6 0 10
-6 10 -14 0 -7 9 -25 21 -40 l20 -26 151 0 151 0 127 125 127 126 -21 -143
-21 -143 -135 -102 -135 -103 -295 0 -295 0 -135 103 -135 102 -21 143 -21
143 127 -126 127 -125 151 0z m362 -480 l0 -80 -160 0 -160 0 0 80 0 80 160 0
160 0 0 -80z m-1740 -95 c55 -42 100 -78 100 -81 0 -8 -194 -253 -200 -254 -7
0 -233 271 -228 274 1 2 32 16 68 33 36 17 83 47 105 66 22 20 44 36 48 37 4
0 53 -34 107 -75z m3318 35 c26 -21 76 -52 110 -68 l63 -28 -111 -135 c-62
-74 -115 -135 -119 -136 -3 -1 -51 54 -105 123 -84 107 -97 127 -85 139 25 24
184 144 192 144 5 1 29 -17 55 -39z m-868 -194 c0 -19 -88 -987 -95 -1053 l-6
-53 -769 0 -769 0 -6 53 c-7 66 -95 1034 -95 1053 0 12 134 14 870 14 736 0
870 -2 870 -14z m-1906 -98 c12 -69 37 -270 34 -273 -4 -4 -517 111 -524 117
-3 3 34 47 82 97 l86 91 158 0 158 0 6 -32z m2480 -59 c48 -50 85 -94 82 -97
-7 -6 -520 -121 -524 -117 -3 3 22 204 34 273 l6 32 158 0 158 0 86 -91z
m-700 -1236 c-7 -71 -13 -143 -13 -160 l-1 -33 -730 0 -730 0 -1 33 c0 17 -6
89 -13 160 l-12 127 756 0 756 0 -12 -127z m-999 -375 c-2 -13 -14 -90 -26
-173 -11 -82 -22 -151 -23 -153 -15 -15 -231 -172 -238 -172 -4 0 -46 51 -93
113 l-85 114 0 146 0 147 235 0 235 0 -5 -22z m975 -125 l0 -146 -85 -114
c-47 -62 -89 -113 -93 -113 -7 0 -223 157 -238 172 -1 2 -12 71 -23 153 -12
83 -24 160 -26 173 l-5 22 235 0 235 0 0 -147z m-1381 -492 c78 -105 94 -106
222 -10 67 50 95 66 97 55 3 -13 -31 -271 -44 -338 l-6 -28 -164 0 -164 0 0
195 c0 107 2 195 4 195 2 0 27 -31 55 -69z m1381 -126 l0 -195 -164 0 -164 0
-6 28 c-13 67 -47 325 -44 338 2 11 30 -5 97 -55 128 -96 144 -95 222 10 28
38 53 69 55 69 2 0 4 -88 4 -195z m-985 -380 c21 -20 25 -34 25 -80 l0 -55
-320 0 -320 0 0 55 c0 46 4 60 25 80 l24 25 271 0 271 0 24 -25z m1120 0 c21
-20 25 -34 25 -80 l0 -55 -320 0 -320 0 0 55 c0 46 4 60 25 80 l24 25 271 0
271 0 24 -25z"/>
<path d="M2441 3104 c-253 -68 -410 -331 -346 -579 50 -190 207 -330 401 -358
329 -48 612 266 529 586 -67 259 -333 419 -584 351z m254 -175 c63 -30 123
-90 155 -154 35 -71 35 -197 0 -270 -31 -64 -91 -124 -155 -155 -73 -35 -199
-35 -270 0 -64 31 -124 91 -155 155 -20 41 -25 65 -24 135 0 72 4 93 26 136
15 28 38 64 52 81 27 32 112 82 160 94 55 14 157 4 211 -22z"/>
<path d="M2480 2867 c-49 -16 -133 -102 -148 -153 -28 -94 -8 -169 63 -239 52
-53 102 -75 167 -75 123 0 238 115 238 239 0 42 -38 81 -80 81 -19 0 -40 -9
-55 -25 -16 -15 -25 -36 -25 -55 0 -41 -39 -80 -80 -80 -41 0 -80 39 -80 80 0
41 39 80 80 80 19 0 40 9 55 25 53 52 14 136 -62 134 -21 -1 -54 -6 -73 -12z"/>
<path d="M1840 2960 l0 -80 80 0 80 0 0 80 0 80 -80 0 -80 0 0 -80z"/>
<path d="M3120 2960 l0 -80 80 0 80 0 0 80 0 80 -80 0 -80 0 0 -80z"/>
<path d="M1840 2320 l0 -80 80 0 80 0 0 80 0 80 -80 0 -80 0 0 -80z"/>
<path d="M3120 2320 l0 -80 80 0 80 0 0 80 0 80 -80 0 -80 0 0 -80z"/>
</g>
</svg>
